<mxGraphModel dx="954" dy="914" grid="1" gridSize="10" guides="1" tooltips="1" connect="1" arrows="1" fold="1" page="1" pageScale="1" pageWidth="827" pageHeight="1169" math="0" shadow="0"><root><mxCell id="0"/><mxCell id="1" parent="0"/><mxCell id="31" value="" style="rounded=0;whiteSpace=wrap;html=1;strokeColor=none;" vertex="1" parent="1"><mxGeometry x="90" y="70" width="590" height="590" as="geometry"/></mxCell><mxCell id="21" style="edgeStyle=none;html=1;exitX=0.5;exitY=1;exitDx=0;exitDy=0;entryX=0.5;entryY=0;entryDx=0;entryDy=0;" edge="1" parent="1" source="19" target="20"><mxGeometry relative="1" as="geometry"/></mxCell><mxCell id="19" value="Order.class" style="rounded=0;whiteSpace=wrap;html=1;fillColor=#d5e8d4;strokeColor=#82b366;" vertex="1" parent="1"><mxGeometry x="325" y="120" width="120" height="60" as="geometry"/></mxCell><mxCell id="27" style="edgeStyle=none;html=1;exitX=0.5;exitY=1;exitDx=0;exitDy=0;entryX=0.5;entryY=0;entryDx=0;entryDy=0;" edge="1" parent="1" source="20" target="22"><mxGeometry relative="1" as="geometry"/></mxCell><mxCell id="20" value="类加载器" style="rounded=0;whiteSpace=wrap;html=1;fillColor=#f8cecc;strokeColor=#b85450;" vertex="1" parent="1"><mxGeometry x="325" y="230" width="120" height="60" as="geometry"/></mxCell><mxCell id="22" value="" style="rounded=0;whiteSpace=wrap;html=1;" vertex="1" parent="1"><mxGeometry x="160" y="340" width="450" height="290" as="geometry"/></mxCell><mxCell id="23" value="" style="rounded=0;whiteSpace=wrap;html=1;fillColor=#dae8fc;strokeColor=#6c8ebf;" vertex="1" parent="1"><mxGeometry x="210" y="370" width="140" height="220" as="geometry"/></mxCell><mxCell id="24" value="" style="rounded=0;whiteSpace=wrap;html=1;fillColor=#ffe6cc;strokeColor=#d79b00;" vertex="1" parent="1"><mxGeometry x="430" y="370" width="140" height="220" as="geometry"/></mxCell><mxCell id="28" style="edgeStyle=none;html=1;exitX=1;exitY=0.5;exitDx=0;exitDy=0;entryX=0;entryY=0.5;entryDx=0;entryDy=0;" edge="1" parent="1" source="25" target="26"><mxGeometry relative="1" as="geometry"/></mxCell><mxCell id="25" value="Order.class&lt;br&gt;的Class对象" style="rounded=0;whiteSpace=wrap;html=1;" vertex="1" parent="1"><mxGeometry x="220" y="400" width="120" height="60" as="geometry"/></mxCell><mxCell id="26" value="Order.class&lt;br&gt;的数据结构" style="rounded=0;whiteSpace=wrap;html=1;" vertex="1" parent="1"><mxGeometry x="440" y="400" width="120" height="60" as="geometry"/></mxCell><mxCell id="29" value="堆区" style="text;html=1;align=center;verticalAlign=middle;resizable=0;points=[];autosize=1;strokeColor=none;" vertex="1" parent="1"><mxGeometry x="260" y="350" width="40" height="20" as="geometry"/></mxCell><mxCell id="30" value="方法区（元空间）" style="text;html=1;align=center;verticalAlign=middle;resizable=0;points=[];autosize=1;strokeColor=none;" vertex="1" parent="1"><mxGeometry x="447" y="350" width="110" height="20" as="geometry"/></mxCell></root></mxGraphModel>